<?xml version="1.0" encoding="UTF-8" standalone="no"?>
<!-- Created with Inkscape (http://www.inkscape.org/) -->

<svg
   width="512"
   height="512"
   viewBox="0 0 135.46666 135.46667"
   version="1.1"
   id="svg865"
   inkscape:version="1.1 (c68e22c387, 2021-05-23)"
   sodipodi:docname="icons-vector.svg"
   xmlns:inkscape="http://www.inkscape.org/namespaces/inkscape"
   xmlns:sodipodi="http://sodipodi.sourceforge.net/DTD/sodipodi-0.dtd"
   xmlns="http://www.w3.org/2000/svg"
   xmlns:svg="http://www.w3.org/2000/svg">
  <sodipodi:namedview
     id="namedview867"
     pagecolor="#ffffff"
     bordercolor="#666666"
     borderopacity="1.0"
     inkscape:pageshadow="2"
     inkscape:pageopacity="0.0"
     inkscape:pagecheckerboard="0"
     inkscape:document-units="px"
     showgrid="false"
     units="px"
     inkscape:zoom="0.38306678"
     inkscape:cx="49.599707"
     inkscape:cy="562.5651"
     inkscape:window-width="1920"
     inkscape:window-height="1017"
     inkscape:window-x="1272"
     inkscape:window-y="-8"
     inkscape:window-maximized="1"
     inkscape:current-layer="layer1" />
  <defs
     id="defs862">
    <linearGradient
       x1="118.1"
       y1="96.529999"
       x2="112.8"
       y2="77.970001"
       gradientUnits="userSpaceOnUse"
       spreadMethod="pad"
       id="linearGradient846-0"
       gradientTransform="matrix(3.2820683,0,0,-3.2820683,-311.40131,352.72371)">
      <stop
         style="stop-opacity:1;stop-color:#fde104"
         offset="0"
         id="stop842-7" />
      <stop
         style="stop-opacity:1;stop-color:#ff9400"
         offset="1"
         id="stop844-5" />
    </linearGradient>
  </defs>
  <g
     inkscape:label="Camada 1"
     inkscape:groupmode="layer"
     id="layer1">
    <rect
       style="fill:#0e5e53;stroke:none;stroke-width:1.19913;stroke-miterlimit:0;stroke-opacity:0.782051"
       id="rect1054"
       width="135.46666"
       height="135.46666"
       x="2.7270507e-06"
       y="2.7270507e-06"
       inkscape:export-filename="C:\desenvolvimento\zlibrary\zlib-conversor-icones\logo512.png"
       inkscape:export-xdpi="256"
       inkscape:export-ydpi="256" />
    <path
       d="m 37.555377,70.602402 c 2.80938,1.88126 5.62937,4.14397 8.09582,6.24741 1.27086,1.08376 2.41993,2.12872 3.64874,3.28795 1.03836,0.97973 2.64954,2.77893 3.60696,3.4636 l 6.86869,7.7004 c 1.11102,1.34269 2.19209,2.60786 3.25548,3.96794 0.77219,0.98728 2.58925,3.66838 3.36312,3.71144 0.30422,-0.6745 -0.17491,-1.45237 -0.39354,-2.0116 l -2.50552,-5.31042 c -0.57124,-1.14342 -3.14356,-6.19614 -3.79667,-6.8687 -0.52937,-1.8337 -6.63144,-9.97613 -8.00827,-11.19117 -1.59936,-2.62629 -9.05519,-8.99947 -12.0445,-11.09368 -1.79464,-1.25774 -1.85967,-1.82814 -0.003,-2.71365 1.66068,-0.7908 5.57456,-2.606 7.0741,-3.49086 1.77334,-1.04664 1.79204,-1.7565 0.80475,-3.38898 -0.63915,-1.05884 -1.43618,-2.07859 -2.45035,-3.02839 -1.74999,-1.64207 -2.37332,-0.74056 -3.83574,-0.11442 -2.40514,1.0299 -4.75707,2.3696 -7.026935,3.36247 l -10.57808,5.09348 c -0.988219,0.53867 -2.878691,1.01148 -3.264691,2.2748 0.74428,1.29207 6.424997,3.10086 9.14348,4.75762 2.805843,1.71194 5.657365,3.88077 8.045666,5.34486 z m 42.63795,14.72661 c -0.40098,2.01123 -0.77033,4.12693 -1.24388,6.15976 -0.28376,1.21904 -1.4106,5.12528 -1.36668,5.96456 0.99612,0.65963 1.32267,-0.42051 1.66234,-1.4412 5.30682,-15.93568 10.35955,-24.9306 8.96504,-42.51887 -0.0837,-1.07548 -0.74334,-4.26825 -0.36469,-5.1279 1.16284,-0.24747 4.91485,1.41497 6.43048,1.93615 2.20299,0.75731 11.856193,3.99949 13.263813,4.71009 1.8423,0.93146 2.23843,2.75662 2.67587,4.49842 1.87837,7.49035 0.93872,13.84631 -0.40563,21.26678 -0.1656,0.91733 -0.67077,2.64146 -0.73869,3.31848 -0.2392,0.96858 -0.4596,2.01717 -0.77125,2.95944 -0.23254,0.7024 -0.97771,1.96965 -0.69032,2.58925 0.58984,0.98627 1.54882,-0.62613 1.79072,-1.30629 0.29493,-0.31726 3.13344,-8.62427 3.41365,-9.66078 2.45696,-9.09035 3.31493,-18.33226 0.65125,-26.99037 -0.46704,-1.51927 -0.52565,-2.30234 -2.39946,-3.05034 l -14.319043,-5.3925 c -2.65521,-0.9777 -17.32013,-6.92841 -18.95392,-6.75443 -0.47634,0.78428 0.22421,2.30103 0.63357,3.83964 0.3312,1.24751 0.63636,2.42347 0.92756,3.76522 1.57862,7.25962 2.51073,14.55989 2.49799,22.07154 -0.001,0.53867 -0.16096,1.67649 0.0744,2.16687 z m 1.73389,-16.96401 c -0.23352,0.87825 -0.16373,3.08877 -0.23632,4.12983 -0.21584,3.07759 -0.40935,5.5421 -0.86988,8.6197 -0.19258,1.28659 -0.51076,2.94075 -0.62798,4.21448 z m -13.60804,15.57313 1.58057,6.5812 c 0.11443,0.48565 1.11,6.36909 2.17051,6.02579 0.55541,-0.33214 0.2605,-2.23078 0.24002,-2.8531 -0.0372,-1.07744 -0.003,-2.12314 -0.0465,-3.21082 -0.0465,-1.26427 -0.12096,-5.41371 -0.39447,-6.25662 0.21213,-2.30792 -1.93057,-14.04456 -2.6943,-15.48381 -0.0837,-0.90151 -0.79544,-2.95386 -1.07948,-3.81239 -0.44657,-1.34537 -0.83825,-2.48329 -1.29412,-3.7895 -1.18312,-3.39103 -2.36672,-5.87786 -3.8617,-8.94885 -0.26421,-0.54239 -0.58798,-1.1714 -0.748,-1.78813 -0.46889,-1.80972 1.79735,-1.80414 2.94996,-1.91569 7.70069,-0.74148 10.28436,0.44471 9.16125,-4.8247 -0.87639,-4.11205 -2.41789,-3.61711 -6.59795,-3.44974 -5.78762,0.23072 -11.60798,0.093 -17.55943,0.42796 -1.75455,0.0995 -2.92958,-0.0372 -4.06284,0.73684 -0.0279,1.24556 1.03744,2.25703 1.82619,3.2272 4.37729,5.38394 7.90053,9.38835 11.22104,15.60402 0.64566,1.20741 1.04469,1.96955 1.82256,3.37782 0.61682,1.11958 0.99342,2.3549 1.67444,3.45476 l 1.61444,4.08126 c 1.51172,4.09439 2.57511,7.64655 3.71926,11.80429 0.0558,0.18613 0.0651,0.26981 0.13584,0.50424 z"
       style="fill:url(#linearGradient846-0);fill-rule:evenodd;stroke:none;stroke-width:3.28209"
       id="path848-4"
       inkscape:export-filename="C:\desenvolvimento\zlibrary\zlib-conversor-icones\logo512.png"
       inkscape:export-xdpi="256"
       inkscape:export-ydpi="256" />
  </g>
</svg>
